<mxfile host="drawio-plugin" modified="2022-09-06T14:52:52.805Z" agent="5.0 (Windows NT 6.2; Win64; x64) AppleWebKit/537.36 (KHTML, like Gecko) Chrome/98.0.4758.102 Safari/537.36" etag="guItGN0RFYpS3i5sEsLf" version="15.5.4" type="embed" pages="2"><diagram id="0zTr8NJ6fugIFkMb8NCp" name="Page-1"><mxGraphModel dx="4863" dy="677" grid="1" gridSize="10" guides="1" tooltips="1" connect="1" arrows="1" fold="1" page="1" pageScale="1" pageWidth="850" pageHeight="1100" math="0" shadow="0"><root><mxCell id="0"/><mxCell id="1" parent="0"/><mxCell id="CKd_9SMvibLWiLTXi5Ua-3" value="OperationService" style="swimlane;" parent="1" vertex="1"><mxGeometry x="-790" y="160" width="350" height="190" as="geometry"><mxRectangle x="-900" y="10" width="140" height="30" as="alternateBounds"/></mxGeometry></mxCell><mxCell id="CKd_9SMvibLWiLTXi5Ua-4" value="create(OperationRequest) -&amp;gt; OperationModel" style="rounded=0;whiteSpace=wrap;html=1;align=left;" parent="CKd_9SMvibLWiLTXi5Ua-3" vertex="1"><mxGeometry y="30" width="350" height="30" as="geometry"/></mxCell><mxCell id="zcg6ZxX6Wk7aITUErAla-9" value="update(OperationModel) -&amp;gt; null" style="rounded=0;whiteSpace=wrap;html=1;align=left;" parent="CKd_9SMvibLWiLTXi5Ua-3" vertex="1"><mxGeometry y="110" width="350" height="30" as="geometry"/></mxCell><mxCell id="zcg6ZxX6Wk7aITUErAla-10" value="read(limit: int, pageNumber: int) -&amp;gt; stream[OperationModel]" style="rounded=0;whiteSpace=wrap;html=1;align=left;" parent="CKd_9SMvibLWiLTXi5Ua-3" vertex="1"><mxGeometry y="70" width="350" height="30" as="geometry"/></mxCell><mxCell id="zcg6ZxX6Wk7aITUErAla-11" value="delete(id: long) -&amp;gt; null" style="rounded=0;whiteSpace=wrap;html=1;align=left;" parent="CKd_9SMvibLWiLTXi5Ua-3" vertex="1"><mxGeometry y="150" width="350" height="30" as="geometry"/></mxCell><mxCell id="SoRRCeJYyz7D19szBIzm-13" value="&lt;h1&gt;TO-DO&lt;/h1&gt;&lt;p&gt;&lt;br&gt;&lt;/p&gt;" style="text;html=1;strokeColor=none;fillColor=none;spacing=5;spacingTop=-20;whiteSpace=wrap;overflow=hidden;rounded=0;" parent="1" vertex="1"><mxGeometry x="-3350" y="30" width="330" height="250" as="geometry"/></mxCell><mxCell id="zcg6ZxX6Wk7aITUErAla-1" value="OperationMetaInformationService" style="swimlane;" parent="1" vertex="1"><mxGeometry x="-390" y="160" width="350" height="70" as="geometry"><mxRectangle x="-900" y="10" width="140" height="30" as="alternateBounds"/></mxGeometry></mxCell><mxCell id="zcg6ZxX6Wk7aITUErAla-2" value="read() -&amp;gt; list[OperationMetaInformationModel]" style="rounded=0;whiteSpace=wrap;html=1;align=left;" parent="zcg6ZxX6Wk7aITUErAla-1" vertex="1"><mxGeometry y="30" width="350" height="30" as="geometry"/></mxCell><mxCell id="zcg6ZxX6Wk7aITUErAla-3" value="OperationsMetaInformationModel" style="swimlane;" parent="1" vertex="1"><mxGeometry x="-1360" y="160" width="200" height="130" as="geometry"/></mxCell><mxCell id="zcg6ZxX6Wk7aITUErAla-5" value="+ checks: list[string]" style="rounded=0;whiteSpace=wrap;html=1;align=left;" parent="zcg6ZxX6Wk7aITUErAla-3" vertex="1"><mxGeometry y="30" width="200" height="30" as="geometry"/></mxCell><mxCell id="zcg6ZxX6Wk7aITUErAla-7" value="+ types: list[string]" style="rounded=0;whiteSpace=wrap;html=1;align=left;" parent="zcg6ZxX6Wk7aITUErAla-3" vertex="1"><mxGeometry y="60" width="200" height="30" as="geometry"/></mxCell><mxCell id="zcg6ZxX6Wk7aITUErAla-8" value="+ categories: list[string]" style="rounded=0;whiteSpace=wrap;html=1;align=left;" parent="zcg6ZxX6Wk7aITUErAla-3" vertex="1"><mxGeometry y="90" width="200" height="30" as="geometry"/></mxCell><mxCell id="zcg6ZxX6Wk7aITUErAla-30" value="&lt;font style=&quot;font-size: 36px;&quot;&gt;Database schema&lt;/font&gt;" style="text;html=1;strokeColor=none;fillColor=none;align=center;verticalAlign=middle;whiteSpace=wrap;rounded=0;" parent="1" vertex="1"><mxGeometry x="-2420" y="70" width="460" height="30" as="geometry"/></mxCell><mxCell id="zcg6ZxX6Wk7aITUErAla-32" value="&lt;font style=&quot;font-size: 36px;&quot;&gt;Domain model&lt;/font&gt;" style="text;html=1;strokeColor=none;fillColor=none;align=center;verticalAlign=middle;whiteSpace=wrap;rounded=0;" parent="1" vertex="1"><mxGeometry x="-1520" y="80" width="460" height="30" as="geometry"/></mxCell><mxCell id="zcg6ZxX6Wk7aITUErAla-42" value="&lt;font style=&quot;font-size: 36px;&quot;&gt;Domain service&lt;/font&gt;" style="text;html=1;strokeColor=none;fillColor=none;align=center;verticalAlign=middle;whiteSpace=wrap;rounded=0;" parent="1" vertex="1"><mxGeometry x="-410" y="80" width="460" height="30" as="geometry"/></mxCell><mxCell id="zcg6ZxX6Wk7aITUErAla-43" value="CheckService" style="swimlane;" parent="1" vertex="1"><mxGeometry y="160" width="350" height="70" as="geometry"><mxRectangle x="-900" y="10" width="140" height="30" as="alternateBounds"/></mxGeometry></mxCell><mxCell id="zcg6ZxX6Wk7aITUErAla-44" value="read() -&amp;gt; list[CheckModel]" style="rounded=0;whiteSpace=wrap;html=1;align=left;" parent="zcg6ZxX6Wk7aITUErAla-43" vertex="1"><mxGeometry y="30" width="350" height="30" as="geometry"/></mxCell><mxCell id="3" value="ChiefOperationService" style="swimlane;" parent="1" vertex="1"><mxGeometry x="-790" y="390" width="350" height="150" as="geometry"><mxRectangle x="-900" y="10" width="140" height="30" as="alternateBounds"/></mxGeometry></mxCell><mxCell id="4" value="create(OperationRequest) -&amp;gt; OperationModel" style="rounded=0;whiteSpace=wrap;html=1;align=left;" parent="3" vertex="1"><mxGeometry y="30" width="350" height="30" as="geometry"/></mxCell><mxCell id="6" value="read(limit: int, pageNumber: int) -&amp;gt; stream[OperationModel]" style="rounded=0;whiteSpace=wrap;html=1;align=left;" parent="3" vertex="1"><mxGeometry y="70" width="350" height="30" as="geometry"/></mxCell><mxCell id="7" value="delete(id: long) -&amp;gt; null" style="rounded=0;whiteSpace=wrap;html=1;align=left;" parent="3" vertex="1"><mxGeometry y="110" width="350" height="30" as="geometry"/></mxCell><mxCell id="13" value="OperationModel" style="swimlane;" parent="1" vertex="1"><mxGeometry x="-1600" y="160" width="200" height="310" as="geometry"><mxRectangle x="-1300" y="10" width="140" height="30" as="alternateBounds"/></mxGeometry></mxCell><mxCell id="14" value="+ fk fromCheck: int (CheckModel)" style="rounded=0;whiteSpace=wrap;html=1;align=left;" parent="13" vertex="1"><mxGeometry y="120" width="200" height="30" as="geometry"/></mxCell><mxCell id="15" value="+ fk type: int (TypeModel)" style="rounded=0;whiteSpace=wrap;html=1;align=left;" parent="13" vertex="1"><mxGeometry y="180" width="200" height="30" as="geometry"/></mxCell><mxCell id="16" value="+ fk category: int (CategoryModel)" style="rounded=0;whiteSpace=wrap;html=1;align=left;" parent="13" vertex="1"><mxGeometry y="90" width="200" height="30" as="geometry"/></mxCell><mxCell id="17" value="+ description: string" style="rounded=0;whiteSpace=wrap;html=1;align=left;" parent="13" vertex="1"><mxGeometry y="240" width="200" height="30" as="geometry"/></mxCell><mxCell id="18" value="+ sum: float" style="rounded=0;whiteSpace=wrap;html=1;align=left;" parent="13" vertex="1"><mxGeometry y="270" width="200" height="30" as="geometry"/></mxCell><mxCell id="19" value="+ id: long" style="rounded=0;whiteSpace=wrap;html=1;align=left;" parent="13" vertex="1"><mxGeometry y="30" width="200" height="30" as="geometry"/></mxCell><mxCell id="20" value="+ date: DateTime" style="rounded=0;whiteSpace=wrap;html=1;align=left;" parent="13" vertex="1"><mxGeometry y="210" width="200" height="30" as="geometry"/></mxCell><mxCell id="21" value="+ fk toCheck: int (CheckModel)" style="rounded=0;whiteSpace=wrap;html=1;align=left;" parent="13" vertex="1"><mxGeometry y="150" width="200" height="30" as="geometry"/></mxCell><mxCell id="22" value="+ fk userId: long" style="rounded=0;whiteSpace=wrap;html=1;align=left;" parent="13" vertex="1"><mxGeometry y="60" width="200" height="30" as="geometry"/></mxCell><mxCell id="23" value="WorkerOperationService" style="swimlane;" parent="1" vertex="1"><mxGeometry x="-790" y="620" width="350" height="150" as="geometry"><mxRectangle x="-900" y="10" width="140" height="30" as="alternateBounds"/></mxGeometry></mxCell><mxCell id="24" value="create(OperationRequest) -&amp;gt; OperationModel" style="rounded=0;whiteSpace=wrap;html=1;align=left;" parent="23" vertex="1"><mxGeometry y="30" width="350" height="30" as="geometry"/></mxCell><mxCell id="26" value="read(limit: int, pageNumber: int) -&amp;gt; stream[OperationModel]" style="rounded=0;whiteSpace=wrap;html=1;align=left;" parent="23" vertex="1"><mxGeometry y="70" width="350" height="30" as="geometry"/></mxCell><mxCell id="27" value="delete(id: long) -&amp;gt; null" style="rounded=0;whiteSpace=wrap;html=1;align=left;" parent="23" vertex="1"><mxGeometry y="110" width="350" height="30" as="geometry"/></mxCell><mxCell id="28" value="AccountantOperationService" style="swimlane;" parent="1" vertex="1"><mxGeometry x="-790" y="840" width="350" height="150" as="geometry"><mxRectangle x="-900" y="10" width="140" height="30" as="alternateBounds"/></mxGeometry></mxCell><mxCell id="29" value="create(OperationRequest) -&amp;gt; OperationModel" style="rounded=0;whiteSpace=wrap;html=1;align=left;" parent="28" vertex="1"><mxGeometry y="30" width="350" height="30" as="geometry"/></mxCell><mxCell id="31" value="read(limit: int, pageNumber: int) -&amp;gt; stream[OperationModel]" style="rounded=0;whiteSpace=wrap;html=1;align=left;" parent="28" vertex="1"><mxGeometry y="70" width="350" height="30" as="geometry"/></mxCell><mxCell id="32" value="delete(id: long) -&amp;gt; null" style="rounded=0;whiteSpace=wrap;html=1;align=left;" parent="28" vertex="1"><mxGeometry y="110" width="350" height="30" as="geometry"/></mxCell><mxCell id="CKd_9SMvibLWiLTXi5Ua-19" value="OperationModel" style="swimlane;" parent="1" vertex="1"><mxGeometry x="-2300" y="410" width="200" height="280" as="geometry"><mxRectangle x="-1300" y="10" width="140" height="30" as="alternateBounds"/></mxGeometry></mxCell><mxCell id="CKd_9SMvibLWiLTXi5Ua-20" value="+ fk fromCheck: int (CheckModel)" style="rounded=0;whiteSpace=wrap;html=1;align=left;" parent="CKd_9SMvibLWiLTXi5Ua-19" vertex="1"><mxGeometry y="120" width="200" height="30" as="geometry"/></mxCell><mxCell id="CKd_9SMvibLWiLTXi5Ua-22" value="+ fk category: int (CategoryModel)" style="rounded=0;whiteSpace=wrap;html=1;align=left;" parent="CKd_9SMvibLWiLTXi5Ua-19" vertex="1"><mxGeometry y="90" width="200" height="30" as="geometry"/></mxCell><mxCell id="CKd_9SMvibLWiLTXi5Ua-23" value="+ description: string" style="rounded=0;whiteSpace=wrap;html=1;align=left;" parent="CKd_9SMvibLWiLTXi5Ua-19" vertex="1"><mxGeometry y="210" width="200" height="30" as="geometry"/></mxCell><mxCell id="CKd_9SMvibLWiLTXi5Ua-24" value="+ sum: float" style="rounded=0;whiteSpace=wrap;html=1;align=left;" parent="CKd_9SMvibLWiLTXi5Ua-19" vertex="1"><mxGeometry y="240" width="200" height="30" as="geometry"/></mxCell><mxCell id="CKd_9SMvibLWiLTXi5Ua-26" value="+ id: long" style="rounded=0;whiteSpace=wrap;html=1;align=left;" parent="CKd_9SMvibLWiLTXi5Ua-19" vertex="1"><mxGeometry y="30" width="200" height="30" as="geometry"/></mxCell><mxCell id="CKd_9SMvibLWiLTXi5Ua-27" value="+ date: DateTime" style="rounded=0;whiteSpace=wrap;html=1;align=left;" parent="CKd_9SMvibLWiLTXi5Ua-19" vertex="1"><mxGeometry y="180" width="200" height="30" as="geometry"/></mxCell><mxCell id="9" value="+ fk toCheck: int (CheckModel)" style="rounded=0;whiteSpace=wrap;html=1;align=left;" parent="CKd_9SMvibLWiLTXi5Ua-19" vertex="1"><mxGeometry y="150" width="200" height="30" as="geometry"/></mxCell><mxCell id="12" value="+ fk userId: long" style="rounded=0;whiteSpace=wrap;html=1;align=left;" parent="CKd_9SMvibLWiLTXi5Ua-19" vertex="1"><mxGeometry y="60" width="200" height="30" as="geometry"/></mxCell><mxCell id="CKd_9SMvibLWiLTXi5Ua-36" value="User" style="swimlane;" parent="1" vertex="1"><mxGeometry x="-2300" y="180" width="200" height="160" as="geometry"/></mxCell><mxCell id="CKd_9SMvibLWiLTXi5Ua-37" value="+ id: long" style="rounded=0;whiteSpace=wrap;html=1;align=left;" parent="CKd_9SMvibLWiLTXi5Ua-36" vertex="1"><mxGeometry y="30" width="200" height="30" as="geometry"/></mxCell><mxCell id="CKd_9SMvibLWiLTXi5Ua-40" value="+ fullname: string" style="rounded=0;whiteSpace=wrap;html=1;align=left;" parent="CKd_9SMvibLWiLTXi5Ua-36" vertex="1"><mxGeometry y="60" width="200" height="30" as="geometry"/></mxCell><mxCell id="CKd_9SMvibLWiLTXi5Ua-41" value="+ role: RoleEnum" style="rounded=0;whiteSpace=wrap;html=1;align=left;" parent="CKd_9SMvibLWiLTXi5Ua-36" vertex="1"><mxGeometry y="90" width="200" height="30" as="geometry"/></mxCell><mxCell id="SoRRCeJYyz7D19szBIzm-7" value="+ fk check: CheckModel" style="rounded=0;whiteSpace=wrap;html=1;align=left;" parent="CKd_9SMvibLWiLTXi5Ua-36" vertex="1"><mxGeometry y="120" width="200" height="30" as="geometry"/></mxCell><mxCell id="CKd_9SMvibLWiLTXi5Ua-42" value="RoleEnum" style="swimlane;" parent="1" vertex="1"><mxGeometry x="-2600" y="320" width="200" height="160" as="geometry"/></mxCell><mxCell id="CKd_9SMvibLWiLTXi5Ua-45" value="+ Admin" style="rounded=0;whiteSpace=wrap;html=1;align=left;" parent="CKd_9SMvibLWiLTXi5Ua-42" vertex="1"><mxGeometry y="30" width="200" height="30" as="geometry"/></mxCell><mxCell id="CKd_9SMvibLWiLTXi5Ua-46" value="+ Chief" style="rounded=0;whiteSpace=wrap;html=1;align=left;" parent="CKd_9SMvibLWiLTXi5Ua-42" vertex="1"><mxGeometry y="60" width="200" height="30" as="geometry"/></mxCell><mxCell id="CKd_9SMvibLWiLTXi5Ua-47" value="+ Worker" style="rounded=0;whiteSpace=wrap;html=1;align=left;" parent="CKd_9SMvibLWiLTXi5Ua-42" vertex="1"><mxGeometry y="90" width="200" height="30" as="geometry"/></mxCell><mxCell id="CKd_9SMvibLWiLTXi5Ua-48" value="+ Accountant" style="rounded=0;whiteSpace=wrap;html=1;align=left;" parent="CKd_9SMvibLWiLTXi5Ua-42" vertex="1"><mxGeometry y="120" width="200" height="30" as="geometry"/></mxCell><mxCell id="SoRRCeJYyz7D19szBIzm-8" value="CheckModel" style="swimlane;" parent="1" vertex="1"><mxGeometry x="-1900" y="380" width="200" height="160" as="geometry"/></mxCell><mxCell id="SoRRCeJYyz7D19szBIzm-9" value="+ id: int" style="rounded=0;whiteSpace=wrap;html=1;align=left;" parent="SoRRCeJYyz7D19szBIzm-8" vertex="1"><mxGeometry y="30" width="200" height="30" as="geometry"/></mxCell><mxCell id="SoRRCeJYyz7D19szBIzm-10" value="+ name: string" style="rounded=0;whiteSpace=wrap;html=1;align=left;" parent="SoRRCeJYyz7D19szBIzm-8" vertex="1"><mxGeometry y="60" width="200" height="30" as="geometry"/></mxCell><mxCell id="SoRRCeJYyz7D19szBIzm-11" value="+ sum: float" style="rounded=0;whiteSpace=wrap;html=1;align=left;" parent="SoRRCeJYyz7D19szBIzm-8" vertex="1"><mxGeometry y="90" width="200" height="30" as="geometry"/></mxCell><mxCell id="33" value="+ common: boolean" style="rounded=0;whiteSpace=wrap;html=1;align=left;" parent="SoRRCeJYyz7D19szBIzm-8" vertex="1"><mxGeometry y="120" width="200" height="30" as="geometry"/></mxCell><mxCell id="zcg6ZxX6Wk7aITUErAla-14" style="edgeStyle=orthogonalEdgeStyle;rounded=0;orthogonalLoop=1;jettySize=auto;html=1;entryX=0;entryY=0.5;entryDx=0;entryDy=0;" parent="1" source="CKd_9SMvibLWiLTXi5Ua-20" target="SoRRCeJYyz7D19szBIzm-9" edge="1"><mxGeometry x="-2720" y="180" as="geometry"><Array as="points"><mxPoint x="-1980" y="545"/><mxPoint x="-1980" y="425"/></Array></mxGeometry></mxCell><mxCell id="zcg6ZxX6Wk7aITUErAla-19" value="CategoryModel" style="swimlane;" parent="1" vertex="1"><mxGeometry x="-1900" y="700" width="200" height="100" as="geometry"/></mxCell><mxCell id="zcg6ZxX6Wk7aITUErAla-20" value="+ id: int" style="rounded=0;whiteSpace=wrap;html=1;align=left;" parent="zcg6ZxX6Wk7aITUErAla-19" vertex="1"><mxGeometry y="30" width="200" height="30" as="geometry"/></mxCell><mxCell id="zcg6ZxX6Wk7aITUErAla-21" value="+ name: string" style="rounded=0;whiteSpace=wrap;html=1;align=left;" parent="zcg6ZxX6Wk7aITUErAla-19" vertex="1"><mxGeometry y="60" width="200" height="30" as="geometry"/></mxCell><mxCell id="zcg6ZxX6Wk7aITUErAla-25" style="edgeStyle=orthogonalEdgeStyle;rounded=0;orthogonalLoop=1;jettySize=auto;html=1;entryX=0;entryY=0.5;entryDx=0;entryDy=0;" parent="1" source="CKd_9SMvibLWiLTXi5Ua-22" target="zcg6ZxX6Wk7aITUErAla-20" edge="1"><mxGeometry x="-2720" y="180" as="geometry"/></mxCell><mxCell id="zcg6ZxX6Wk7aITUErAla-26" style="edgeStyle=orthogonalEdgeStyle;rounded=0;orthogonalLoop=1;jettySize=auto;html=1;entryX=0;entryY=0.5;entryDx=0;entryDy=0;" parent="1" source="SoRRCeJYyz7D19szBIzm-7" target="SoRRCeJYyz7D19szBIzm-9" edge="1"><mxGeometry x="-2720" y="180" as="geometry"><Array as="points"><mxPoint x="-2000" y="315"/><mxPoint x="-2000" y="425"/></Array></mxGeometry></mxCell><mxCell id="zcg6ZxX6Wk7aITUErAla-27" style="edgeStyle=orthogonalEdgeStyle;rounded=0;orthogonalLoop=1;jettySize=auto;html=1;entryX=0.5;entryY=0;entryDx=0;entryDy=0;" parent="1" source="CKd_9SMvibLWiLTXi5Ua-41" target="CKd_9SMvibLWiLTXi5Ua-42" edge="1"><mxGeometry x="-2720" y="180" as="geometry"/></mxCell><mxCell id="34" value="FIx name" style="text;html=1;strokeColor=none;fillColor=none;align=center;verticalAlign=middle;whiteSpace=wrap;rounded=0;" parent="1" vertex="1"><mxGeometry x="-1690" y="510" width="60" height="30" as="geometry"/></mxCell></root></mxGraphModel></diagram><diagram id="RCsG_tGw5-zIpyIvEPFC" name="Page-2">&#xa;    <mxGraphModel dx="974" dy="460" grid="1" gridSize="10" guides="1" tooltips="1" connect="1" arrows="1" fold="1" page="1" pageScale="1" pageWidth="850" pageHeight="1100" math="0" shadow="0">&#xa;      <root>&#xa;        <mxCell id="0"/>&#xa;        <mxCell id="1" parent="0"/>&#xa;      </root>&#xa;    </mxGraphModel>&#xa;  </diagram></mxfile>
